<svg width="32" height="33" viewBox="0 0 32 33" fill="none" xmlns="http://www.w3.org/2000/svg">
<path d="M16 0.638672C11.6533 0.638672 11.1107 0.658603 9.404 0.734339C7.7 0.814062 6.54 1.08113 5.52 1.47576C4.468 1.88235 3.57467 2.42845 2.68533 3.31469C1.796 4.20095 1.24667 5.08986 0.84 6.13954C0.444 7.156 0.174667 8.31198 0.096 10.0101C0.016 11.7109 0 12.2516 0 16.5832C0 20.9148 0.02 21.4556 0.096 23.1563C0.176 24.8531 0.444 26.0104 0.84 27.0269C1.248 28.0739 1.796 28.9654 2.68533 29.8518C3.57467 30.7367 4.46667 31.2854 5.52 31.6907C6.54133 32.084 7.70133 32.3536 9.404 32.4321C11.1107 32.5118 11.6533 32.5277 16 32.5277C20.3467 32.5277 20.8893 32.5078 22.596 32.4321C24.2987 32.3524 25.46 32.084 26.48 31.6907C27.5307 31.2841 28.4253 30.7367 29.3147 29.8518C30.2027 28.9654 30.7533 28.0779 31.16 27.0269C31.5547 26.0104 31.8253 24.8531 31.904 23.1563C31.984 21.4556 32 20.9148 32 16.5832C32 12.2516 31.98 11.7109 31.904 10.0101C31.824 8.3133 31.5547 7.15468 31.16 6.13954C30.752 5.09118 30.2027 4.20095 29.3147 3.31469C28.4253 2.42845 27.5347 1.88102 26.48 1.47576C25.46 1.08113 24.2987 0.812733 22.596 0.734339C20.8893 0.654616 20.3467 0.638672 16 0.638672ZM16 3.50869C20.2707 3.50869 20.78 3.52994 22.4667 3.60303C24.0267 3.67611 24.8733 3.93388 25.436 4.15444C26.1853 4.44277 26.716 4.78824 27.2787 5.34497C27.8373 5.90303 28.184 6.43319 28.4733 7.17992C28.692 7.74064 28.9533 8.58436 29.024 10.139C29.1 11.8211 29.1173 12.326 29.1173 16.5832C29.1173 20.8404 29.0973 21.3466 29.0187 23.0275C28.9373 24.5821 28.6773 25.4257 28.4573 25.9865C28.1587 26.7332 27.8187 27.2621 27.2587 27.8228C26.7 28.3795 26.16 28.725 25.4187 29.0133C24.8587 29.2312 23.9987 29.4916 22.4387 29.5621C20.74 29.6378 20.24 29.655 15.96 29.655C11.6787 29.655 11.1787 29.6351 9.48133 29.5568C7.92 29.4757 7.06 29.2166 6.5 28.9973C5.74133 28.6998 5.22 28.3609 4.66133 27.8029C4.1 27.2461 3.74133 26.708 3.46133 25.9693C3.24133 25.4112 2.98267 24.5542 2.90133 22.9996C2.84133 21.3254 2.82 20.8085 2.82 16.5633C2.82 12.3167 2.84133 11.7986 2.90133 10.1044C2.98267 8.54982 3.24133 7.69413 3.46133 7.13607C3.74133 6.3787 4.1 5.86051 4.66133 5.30112C5.22 4.74439 5.74133 4.38564 6.5 4.10793C7.06 3.88737 7.90133 3.62827 9.46133 3.54855C11.1613 3.48876 11.6613 3.46883 15.94 3.46883L16 3.50869ZM16 8.39569C11.46 8.39569 7.784 12.0629 7.784 16.5832C7.784 21.1075 11.464 24.7707 16 24.7707C20.54 24.7707 24.216 21.1035 24.216 16.5832C24.216 12.0589 20.536 8.39569 16 8.39569ZM16 21.898C13.0533 21.898 10.6667 19.5197 10.6667 16.5832C10.6667 13.6467 13.0533 11.2684 16 11.2684C18.9467 11.2684 21.3333 13.6467 21.3333 16.5832C21.3333 19.5197 18.9467 21.898 16 21.898ZM26.4613 8.07281C26.4613 9.12914 25.6 9.98616 24.5413 9.98616C23.4813 9.98616 22.6213 9.12781 22.6213 8.07281C22.6213 7.01781 23.4827 6.16079 24.5413 6.16079C25.5987 6.15947 26.4613 7.01781 26.4613 8.07281Z" fill="white"/>
</svg>
