<svg width="183" height="59" viewBox="0 0 183 59" fill="none" xmlns="http://www.w3.org/2000/svg">
<path d="M0 46.5066C0 45.2744 0.0472851 44.1431 0.14185 43.1125C0.252188 42.0597 0.409805 40.9283 0.614712 39.7185H5.36686V42.5078C5.36686 44.0535 5.42991 45.4201 5.556 46.6074C5.69786 47.7949 5.91853 48.8029 6.218 49.6318C6.53323 50.4383 6.94304 51.0544 7.44741 51.4801C7.96755 51.8833 8.59802 52.0849 9.33881 52.0849C10.5052 52.0849 11.3957 51.637 12.0104 50.7409C12.6251 49.8222 12.9325 48.4892 12.9325 46.7419C12.9325 45.8458 12.8852 45.0281 12.7906 44.2888C12.7119 43.527 12.5621 42.7766 12.3415 42.0372C12.1365 41.2979 11.8528 40.5251 11.4903 39.7185C11.1277 38.8896 10.6628 37.9711 10.0954 36.963L3.71189 26.1759C2.57704 24.1148 1.70227 22.0426 1.08755 19.9592C0.472852 17.8532 0.165496 15.6131 0.165496 13.2383C0.165496 11.3341 0.370403 9.58661 0.780208 7.99601C1.20577 6.40541 1.8126 5.03882 2.60068 3.89628C3.38877 2.73133 4.35811 1.83521 5.50872 1.20793C6.67509 0.55824 7.9912 0.233398 9.45703 0.233398C11.2381 0.233398 12.7197 0.591845 13.9018 1.30874C15.0998 2.02563 16.0533 2.96656 16.7626 4.13151C17.4719 5.29646 17.9684 6.60703 18.2521 8.06321C18.5515 9.497 18.7013 10.942 18.7013 12.3982C18.7013 13.6304 18.6304 14.7729 18.4885 15.8258C18.3624 16.8563 18.2127 17.9989 18.0393 19.2535H13.3108V16.5315C13.3108 13.4847 13.0034 11.1548 12.3887 9.54182C11.774 7.9064 10.7731 7.08869 9.38612 7.08869C8.2355 7.08869 7.37648 7.54795 6.80906 8.46648C6.24164 9.3626 5.95793 10.5723 5.95793 12.0957C5.95793 12.9022 5.99733 13.6304 6.07615 14.2801C6.17072 14.9297 6.29681 15.5346 6.45443 16.0947C6.6278 16.6323 6.83271 17.1588 7.06913 17.674C7.30556 18.1893 7.5735 18.727 7.87298 19.287L14.9894 31.5191C16.2818 33.9162 17.2748 36.2238 17.9684 38.4415C18.6619 40.6371 19.0087 42.967 19.0087 45.4313C19.0087 47.47 18.7801 49.3071 18.323 50.9424C17.8817 52.5778 17.2434 53.9669 16.4079 55.1093C15.5726 56.2519 14.5638 57.1368 13.3817 57.7641C12.1996 58.369 10.8677 58.6714 9.38612 58.6714C7.55775 58.6714 6.03674 58.3242 4.82309 57.6296C3.6252 56.9352 2.66373 56.0166 1.9387 54.8742C1.22941 53.7316 0.725039 52.4321 0.425572 50.976C0.14185 49.5198 0 48.03 0 46.5066Z" fill="white"/>
<path d="M27.8982 7.59309H21.3965V0.737793H40.4997V7.59309H34.0217V58.1341H27.8982V7.59309Z" fill="white"/>
<path d="M49.0819 0.737793H56.1274L63.5985 58.1341H57.4041L56.293 47.8511H48.9165L47.8526 58.1341H41.6345L49.0819 0.737793ZM55.5837 41.2983L52.7466 12.701H52.4865L49.6257 41.2983H55.5837Z" fill="white"/>
<path d="M67.5232 0.737793H74.1667C74.9233 0.737793 75.7509 0.782599 76.6493 0.872211C77.5634 0.961822 78.4697 1.18585 79.3681 1.5443C80.2823 1.88033 81.157 2.39561 81.9924 3.0901C82.8436 3.78459 83.5923 4.73671 84.2385 5.94647C84.9005 7.15623 85.4285 8.67963 85.8225 10.5167C86.2166 12.3313 86.4137 14.5381 86.4137 17.1366V18.5818C86.4137 22.9502 85.9723 26.5123 85.0897 29.2679C84.207 32.001 82.9066 33.9725 81.1886 35.1823L87.6666 58.1341H81.1886L75.8218 36.6608H73.5284V58.1341H67.5232V0.737793ZM74.4505 30.3768C75.5223 30.3768 76.4285 30.2088 77.1694 29.8728C77.9102 29.5368 78.5091 28.9767 78.9661 28.1926C79.4233 27.3861 79.7543 26.3331 79.9592 25.0338C80.1641 23.712 80.2665 22.0878 80.2665 20.1611V15.6246C80.2665 14.1459 80.172 12.869 79.9829 11.7936C79.7937 10.7183 79.4705 9.83338 79.0135 9.13888C78.5721 8.4444 77.9811 7.92914 77.2403 7.59309C76.4995 7.25704 75.5696 7.08902 74.4505 7.08902H73.5284V30.3768H74.4505Z" fill="white"/>
<path d="M92.3007 0.737793H98.4241V24.765H105.683V0.737793H111.806V58.1341H105.683V31.6202H98.4241V58.1341H92.3007V0.737793Z" fill="#4C0707"/>
<path d="M118.78 0.737793H133.746V7.59309H124.903V24.765H131.737V31.6202H124.903V51.2789H133.982V58.1341H118.78V0.737793Z" fill="white"/>
<path d="M138.404 0.737793H145.047C145.804 0.737793 146.631 0.782599 147.53 0.872211C148.444 0.961822 149.351 1.18585 150.248 1.5443C151.163 1.88033 152.038 2.39561 152.873 3.0901C153.724 3.78459 154.473 4.73671 155.119 5.94647C155.781 7.15623 156.309 8.67963 156.703 10.5167C157.097 12.3313 157.294 14.5381 157.294 17.1366V18.5818C157.294 22.9502 156.853 26.5123 155.97 29.2679C155.087 32.001 153.787 33.9725 152.069 35.1823L158.547 58.1341H152.069L146.703 36.6608H144.409V58.1341H138.404V0.737793ZM145.331 30.3768C146.403 30.3768 147.309 30.2088 148.05 29.8728C148.791 29.5368 149.39 28.9767 149.847 28.1926C150.304 27.3861 150.635 26.3331 150.839 25.0338C151.044 23.712 151.147 22.0878 151.147 20.1611V15.6246C151.147 14.1459 151.052 12.869 150.864 11.7936C150.674 10.7183 150.351 9.83338 149.894 9.13888C149.452 8.4444 148.861 7.92914 148.121 7.59309C147.38 7.25704 146.45 7.08902 145.331 7.08902H144.409V30.3768H145.331Z" fill="white"/>
<path d="M172.118 58.6379C171.471 58.6379 170.77 58.5594 170.014 58.4026C169.257 58.2682 168.509 57.9657 167.768 57.4953C167.027 57.0249 166.31 56.3639 165.617 55.5126C164.939 54.6389 164.331 53.4963 163.796 52.0849C163.275 50.6736 162.858 48.9373 162.543 46.8762C162.227 44.7928 162.07 42.3174 162.07 39.4498V19.1191C162.07 16.229 162.227 13.7648 162.543 11.7261C162.874 9.66503 163.308 7.94001 163.843 6.55102C164.379 5.13963 164.986 4.01949 165.664 3.19059C166.357 2.36167 167.074 1.73439 167.815 1.30874C168.571 0.860683 169.321 0.569441 170.061 0.435023C170.802 0.300606 171.488 0.233398 172.118 0.233398C172.717 0.233398 173.379 0.300606 174.104 0.435023C174.845 0.547039 175.578 0.815877 176.302 1.24153C177.044 1.64478 177.761 2.26086 178.454 3.08978C179.148 3.89628 179.762 5.00522 180.298 6.41661C180.835 7.80559 181.259 9.54182 181.575 11.6253C181.906 13.6864 182.071 16.1843 182.071 19.1191V39.4498C182.071 42.2948 181.906 44.7481 181.575 46.8091C181.244 48.8477 180.81 50.584 180.275 52.0178C179.739 53.4292 179.117 54.5717 178.407 55.4454C177.714 56.2968 176.996 56.9688 176.256 57.4616C175.531 57.9322 174.805 58.2457 174.08 58.4026C173.356 58.5594 172.701 58.6379 172.118 58.6379ZM172.118 52.0849C172.717 52.0849 173.237 51.9394 173.679 51.6482C174.135 51.3568 174.506 50.8528 174.789 50.1359C175.089 49.4191 175.31 48.4781 175.452 47.3131C175.609 46.1258 175.688 44.6359 175.688 42.8437V16.7331C175.688 14.8962 175.609 13.3615 175.452 12.1293C175.31 10.8972 175.089 9.91146 174.789 9.17216C174.506 8.41046 174.135 7.87279 173.679 7.55915C173.237 7.24551 172.717 7.0887 172.118 7.0887C171.504 7.0887 170.967 7.24551 170.51 7.55915C170.053 7.87279 169.675 8.41046 169.375 9.17216C169.076 9.91146 168.848 10.8972 168.69 12.1293C168.548 13.3615 168.477 14.8962 168.477 16.7331V42.8437C168.477 44.6359 168.548 46.1258 168.69 47.3131C168.848 48.4781 169.076 49.4191 169.375 50.1359C169.675 50.8528 170.053 51.3568 170.51 51.6482C170.967 51.9394 171.504 52.0849 172.118 52.0849Z" fill="white"/>
</svg>
