<svg width="171" height="63" viewBox="0 0 171 63" fill="none" xmlns="http://www.w3.org/2000/svg">
<path d="M0 49.367C0 48.0524 0.0441607 46.8455 0.132477 45.746C0.235524 44.6228 0.382726 43.4157 0.574094 42.125H5.01224V45.1008C5.01224 46.7499 5.07112 48.2078 5.18888 49.4745C5.32137 50.7414 5.52745 51.8169 5.80713 52.7012C6.10154 53.5616 6.48426 54.2189 6.95531 54.673C7.44108 55.1032 8.02989 55.3182 8.72173 55.3182C9.81107 55.3182 10.6428 54.8404 11.2168 53.8843C11.7909 52.9043 12.0779 51.4822 12.0779 49.618C12.0779 48.662 12.0338 47.7896 11.9455 47.0009C11.8719 46.1882 11.732 45.3876 11.526 44.5988C11.3345 43.8101 11.0696 42.9856 10.731 42.125C10.3924 41.2407 9.95823 40.2608 9.4283 39.1853L3.46662 27.677C2.40676 25.4781 1.58979 23.2673 1.01569 21.0446C0.441607 18.7979 0.15456 16.4079 0.15456 13.8744C0.15456 11.8428 0.345928 9.97856 0.728654 8.28161C1.1261 6.58467 1.69283 5.12671 2.42883 3.90778C3.16486 2.66494 4.07014 1.70891 5.14473 1.03969C6.23402 0.34656 7.46317 0 8.83214 0C10.4955 0 11.8793 0.382412 12.9832 1.14724C14.102 1.91206 14.9926 2.91589 15.655 4.15873C16.3174 5.40157 16.7811 6.79977 17.0461 8.35331C17.3257 9.88296 17.4656 11.4246 17.4656 12.9781C17.4656 14.2927 17.3994 15.5116 17.2668 16.6349C17.1491 17.7343 17.0092 18.9533 16.8473 20.2917H12.4312V17.3878C12.4312 14.1373 12.1442 11.6516 11.5701 9.93077C10.996 8.18601 10.0613 7.31364 8.76591 7.31364C7.69132 7.31364 6.88907 7.8036 6.35914 8.78354C5.82921 9.73957 5.56425 11.0302 5.56425 12.6554C5.56425 13.5159 5.60105 14.2927 5.67465 14.9858C5.76298 15.6789 5.88074 16.3243 6.02794 16.9217C6.18986 17.4954 6.38123 18.0571 6.60202 18.6067C6.82283 19.1564 7.07307 19.73 7.35276 20.3275L13.999 33.3774C15.206 35.9348 16.1334 38.3966 16.7811 40.7627C17.4288 43.1051 17.7527 45.5907 17.7527 48.2197C17.7527 50.3948 17.5392 52.3547 17.1123 54.0994C16.7001 55.8441 16.104 57.3261 15.3237 58.5449C14.5436 59.7639 13.6015 60.708 12.4975 61.3772C11.3935 62.0225 10.1496 62.3451 8.76591 62.3451C7.05836 62.3451 5.63786 61.9747 4.50439 61.2337C3.38565 60.4929 2.48772 59.5129 1.81059 58.294C1.14818 57.075 0.677131 55.6887 0.397451 54.1352C0.132477 52.5817 0 50.9922 0 49.367Z" fill="white"/>
<path d="M26.0548 7.85137H19.9827V0.537736H37.8236V7.85137H31.7736V61.7715H26.0548V7.85137Z" fill="white"/>
<path d="M45.8387 0.537736H52.4187L59.3961 61.7715H53.611L52.5733 50.801H45.6842L44.6906 61.7715H38.8834L45.8387 0.537736ZM51.9109 43.81L49.2613 13.3007H49.0183L46.3466 43.81H51.9109Z" fill="white"/>
<path d="M63.0615 0.537736H69.2661C69.9726 0.537736 70.7455 0.585538 71.5846 0.681141C72.4383 0.776744 73.2848 1.01575 74.1238 1.39816C74.9775 1.75666 75.7945 2.30639 76.5747 3.04732C77.3696 3.78824 78.0688 4.80402 78.6723 6.09466C79.2906 7.3853 79.7837 9.01055 80.1517 10.9704C80.5198 12.9064 80.7038 15.2607 80.7038 18.033V19.5747C80.7038 24.2353 80.2916 28.0355 79.4673 30.9754C78.6429 33.8912 77.4285 35.9944 75.824 37.2852L81.8739 61.7715H75.824L70.8118 38.8625H68.6699V61.7715H63.0615V0.537736ZM69.5311 32.1584C70.5321 32.1584 71.3784 31.9791 72.0703 31.6207C72.7622 31.2622 73.3215 30.6647 73.7484 29.8281C74.1753 28.9677 74.4844 27.8443 74.6758 26.4582C74.8672 25.048 74.9628 23.3152 74.9628 21.2596V16.4198C74.9628 14.8423 74.8745 13.48 74.6979 12.3328C74.5213 11.1855 74.2194 10.2414 73.7926 9.50051C73.3804 8.7596 72.8284 8.20989 72.1365 7.85137C71.4447 7.49285 70.5762 7.31361 69.5311 7.31361H68.6699V32.1584H69.5311Z" fill="white"/>
<path d="M86.2017 0.537736H91.9205V26.1713H98.6995V0.537736H104.418V61.7715H98.6995V33.4849H91.9205V61.7715H86.2017V0.537736Z" fill="white"/>
<path d="M110.932 0.537736H124.909V7.85137H116.65V26.1714H123.032V33.4849H116.65V54.4579H125.129V61.7715H110.932V0.537736Z" fill="white"/>
<path d="M129.258 0.537736H135.463C136.17 0.537736 136.942 0.585538 137.781 0.681141C138.635 0.776744 139.482 1.01575 140.32 1.39816C141.175 1.75666 141.992 2.30639 142.772 3.04732C143.567 3.78824 144.266 4.80402 144.869 6.09466C145.488 7.3853 145.98 9.01055 146.349 10.9704C146.716 12.9064 146.901 15.2607 146.901 18.033V19.5747C146.901 24.2353 146.488 28.0355 145.664 30.9754C144.84 33.8912 143.625 35.9944 142.021 37.2852L148.071 61.7715H142.021L137.009 38.8625H134.867V61.7715H129.258V0.537736ZM135.728 32.1584C136.729 32.1584 137.575 31.9791 138.268 31.6207C138.959 31.2622 139.519 30.6647 139.945 29.8281C140.372 28.9677 140.681 27.8443 140.872 26.4582C141.064 25.048 141.16 23.3152 141.16 21.2596V16.4198C141.16 14.8423 141.071 13.48 140.895 12.3328C140.718 11.1855 140.416 10.2414 139.99 9.50051C139.577 8.7596 139.025 8.20989 138.333 7.85137C137.642 7.49285 136.773 7.31361 135.728 7.31361H134.867V32.1584H135.728Z" fill="white"/>
<path d="M160.745 62.3094C160.141 62.3094 159.486 62.2257 158.78 62.0583C158.073 61.915 157.374 61.5923 156.683 61.0904C155.99 60.5885 155.32 59.8833 154.673 58.9752C154.04 58.043 153.473 56.824 152.973 55.3182C152.487 53.8126 152.096 51.9602 151.803 49.7613C151.508 47.5386 151.361 44.8977 151.361 41.8384V20.1484C151.361 17.0651 151.508 14.4361 151.803 12.2611C152.112 10.0622 152.517 8.22187 153.017 6.74002C153.517 5.23426 154.084 4.03922 154.717 3.1549C155.365 2.27057 156.034 1.60134 156.726 1.14724C157.433 0.669225 158.132 0.35851 158.824 0.215105C159.515 0.0717008 160.156 0 160.745 0C161.305 0 161.923 0.0717008 162.6 0.215105C163.291 0.334611 163.976 0.621423 164.653 1.07553C165.345 1.50574 166.015 2.16302 166.662 3.04735C167.31 3.90778 167.884 5.09086 168.384 6.59661C168.886 8.07846 169.282 9.93078 169.577 12.1535C169.886 14.3524 170.041 17.0173 170.041 20.1484V41.8384C170.041 44.8736 169.886 47.4909 169.577 49.6897C169.268 51.8646 168.863 53.717 168.363 55.2467C167.862 56.7524 167.281 57.9713 166.618 58.9034C165.971 59.8117 165.301 60.5287 164.609 61.0544C163.932 61.5565 163.255 61.891 162.577 62.0583C161.901 62.2257 161.289 62.3094 160.745 62.3094ZM160.745 55.3182C161.305 55.3182 161.79 55.163 162.202 54.8523C162.629 54.5415 162.975 54.0038 163.24 53.239C163.519 52.4742 163.726 51.4703 163.859 50.2274C164.006 48.9607 164.079 47.3713 164.079 45.4592V17.6029C164.079 15.6431 164.006 14.0059 163.859 12.6913C163.726 11.3768 163.519 10.3251 163.24 9.5364C162.975 8.72377 162.629 8.15016 162.202 7.81555C161.79 7.48093 161.305 7.31364 160.745 7.31364C160.171 7.31364 159.67 7.48093 159.243 7.81555C158.816 8.15016 158.463 8.72377 158.183 9.5364C157.904 10.3251 157.691 11.3768 157.544 12.6913C157.411 14.0059 157.345 15.6431 157.345 17.6029V45.4592C157.345 47.3713 157.411 48.9607 157.544 50.2274C157.691 51.4703 157.904 52.4742 158.183 53.239C158.463 54.0038 158.816 54.5415 159.243 54.8523C159.67 55.163 160.171 55.3182 160.745 55.3182Z" fill="white"/>
</svg>
