<svg width="32" height="23" viewBox="0 0 32 23" fill="none" xmlns="http://www.w3.org/2000/svg">
<path d="M31.3307 3.85777C31.1499 3.17916 30.7934 2.55979 30.2968 2.06169C29.8003 1.5636 29.1811 1.20425 28.5013 1.01964C26.0067 0.348633 16 0.348633 16 0.348633C16 0.348633 5.99333 0.348633 3.49733 1.01964C2.81788 1.20458 2.19906 1.56405 1.70277 2.06211C1.20648 2.56018 0.850122 3.17938 0.669333 3.85777C0 6.36106 0 11.5829 0 11.5829C0 11.5829 0 16.8047 0.669333 19.308C0.850115 19.9867 1.20663 20.606 1.70319 21.1041C2.19974 21.6021 2.8189 21.9615 3.49867 22.1461C5.99333 22.8171 16 22.8171 16 22.8171C16 22.8171 26.0067 22.8171 28.5027 22.1461C29.1825 21.9617 29.8017 21.6023 30.2983 21.1043C30.7949 20.6061 31.1513 19.9867 31.332 19.308C32 16.8047 32 11.5829 32 11.5829C32 11.5829 32 6.36106 31.3307 3.85777ZM12.7267 16.3237V6.84209L21.0907 11.5829L12.7267 16.3237Z" fill="white"/>
</svg>
